# xmcd CD database file
#
# Track frame offsets:
#	150
#	10645
#	22905
#	36275
#	48082
#	61900
#	73457
#	86265
#	103155
#	115925
#	127490
#	135627
#	149035
#	161537
#	192380
#
# Disc length: 2777 seconds
#
# Revision: 7
# Processed by: cddbd v1.4PL0 Copyright (c) Steve Scherf et al.
# Submitted via: CDex 1.40Release
#
DISCID=d80ad70f
DTITLE=Various Artist - Rhythm and Blues CD2
DYEAR=1989
DGENRE=Blues
TTITLE0=Arthur Conley_Funky Street
TTITLE1=Salomon Burke_Everybody needs somebody to love
TTITLE2=Ben E King_Stand by me
TTITLE3=Otis Redding_Shake
TTITLE4=Wilson Pickett_Mustang Sally
TTITLE5=The Mark Keys_Last Night
TTITLE6=Ray Charles_I got a Woman
TTITLE7=Otis Redding_Try a little tenderness
TTITLE8=Percy Sledge_When a man loves a woman
TTITLE9=The Drifters_Up on the Roof
TTITLE10=The Coasters_Yakety Yak
TTITLE11=Don Covay_See saw
TTITLE12=Clarence Carter_Funky fever
TTITLE13=Donny Hathaway_The Ghetto
TTITLE14=Aretha Franklin_Say a little Prayer
EXTD=YEAR: 1989 ID3G: 0
EXTT0=
EXTT1=
EXTT2=
EXTT3=
EXTT4=
EXTT5=
EXTT6=
EXTT7=
EXTT8=
EXTT9=
EXTT10=
EXTT11=
EXTT12=
EXTT13=
EXTT14=
PLAYORDER=
